<?xml version="1.0" encoding="UTF-8"?>
<svg width="13px" height="10px" viewBox="0 0 13 10" version="1.1" xmlns="http://www.w3.org/2000/svg" xmlns:xlink="http://www.w3.org/1999/xlink">
    <!-- Generator: Sketch 50.2 (55047) - http://www.bohemiancoding.com/sketch -->
    <title>Fill 1</title>
    <desc>Created with Sketch.</desc>
    <defs></defs>
    <g id="Design" stroke="none" stroke-width="1" fill="none" fill-rule="evenodd">
        <g id="02.3-Them-Moi-Du-An__Thanh-Phan-Ho-So" transform="translate(-50.000000, -258.000000)" fill="#245CD5">
            <path d="M62.2711854,262.288108 L52.4406769,262.288108 L55.5593209,259.20603 C55.6949163,259.060859 55.7627108,258.893356 55.7627108,258.703516 C55.7627108,258.513677 55.6949163,258.346175 55.5593209,258.201005 C55.412429,258.067 55.2429397,258 55.0508485,258 C54.8587553,258 54.6892659,258.067 54.5423718,258.201005 L50.2033898,262.489113 C50.1694914,262.53378 50.1355934,262.572864 50.1016949,262.606365 C50.0677964,262.639865 50.0508475,262.673366 50.0508475,262.706867 C50.016949,262.785037 50,262.874371 50,262.974874 C50,263.075376 50.016949,263.175879 50.0508475,263.276381 C50.0847459,263.321048 50.1101694,263.360132 50.1271186,263.393633 C50.1440679,263.427136 50.1694914,263.460635 50.2033898,263.494138 L54.5423718,267.782245 C54.6101706,267.860414 54.6836144,267.916248 54.7627119,267.949749 C54.8418094,267.98325 54.9378527,268 55.0508485,268 C55.1525435,268 55.2429375,267.98325 55.322035,267.949749 C55.4011303,267.916248 55.4802256,267.860414 55.5593209,267.782245 C55.6949163,267.637073 55.7627108,267.469571 55.7627108,267.279732 C55.7627108,267.089893 55.6949163,266.92239 55.5593209,266.777219 L52.4406769,263.711892 L62.2711854,263.711892 C62.4971769,263.711892 62.6751403,263.647682 62.8050842,263.519262 C62.9350281,263.390842 63,263.214965 63,262.991623 C63,262.779452 62.9350281,262.609156 62.8050842,262.480736 C62.6751403,262.352316 62.4971769,262.288108 62.2711854,262.288108 Z" id="Fill-1"></path>
        </g>
    </g>
</svg>