<?xml version="1.0" encoding="UTF-8"?>
<svg width="50px" height="56px" viewBox="0 0 50 56" version="1.1" xmlns="http://www.w3.org/2000/svg" xmlns:xlink="http://www.w3.org/1999/xlink">
    <!-- Generator: Sketch 49.2 (51160) - http://www.bohemiancoding.com/sketch -->
    <title>Page 1</title>
    <desc>Created with Sketch.</desc>
    <defs></defs>
    <g id="Page-1" stroke="none" stroke-width="1" fill="none" fill-rule="evenodd">
        <g id="01.QLHLV_Them-Moi" transform="translate(-105.000000, -308.000000)" fill="#A1A1A1">
            <g id="Group-3" transform="translate(50.000000, 255.000000)">
                <path d="M91.1328167,86.6131327 L68.8671833,86.6131327 C66.9574583,86.6131327 65.1562583,86.9632638 63.4635417,87.663543 C61.770825,88.4075865 60.295145,89.4032748 59.0364583,90.6506413 C57.7777717,91.8980079 56.8012192,93.375137 56.1067708,95.0820623 C55.3689199,96.7889876 55,98.6271889 55,100.596717 L55,106.177022 C55,107.052369 55.2495635,107.741693 55.7486979,108.245018 C56.2478325,108.748342 56.9314192,109 57.7994792,109 C58.6241358,109 59.2860217,108.748342 59.7851567,108.245018 C60.2842908,107.741693 60.5338542,107.052369 60.5338542,106.177022 L60.5338542,100.596717 C60.5338542,98.233285 61.3367975,96.2419002 62.9427083,94.6225035 C64.5486167,93.0031152 66.523425,92.1934337 68.8671833,92.1934337 L91.1328167,92.1934337 C93.476575,92.1934337 95.4513833,93.0031152 97.0572917,94.6225035 C98.6632,96.2419002 99.46615,98.233285 99.46615,100.596717 L99.46615,106.177022 C99.46615,107.052369 99.7157083,107.741693 100.214842,108.245018 C100.713975,108.748342 101.375867,109 102.200517,109 C103.068583,109 103.752167,108.748342 104.2513,108.245018 C104.750433,107.741693 105,107.052369 105,106.177022 L105,100.596717 C105,98.6271889 104.631083,96.7889876 103.893233,95.0820623 C103.198783,93.375137 102.222225,91.8980079 100.963542,90.6506413 C99.7048583,89.4032748 98.229175,88.4075865 96.5364583,87.663543 C94.8437417,86.9632638 93.0425417,86.6131327 91.1328167,86.6131327 Z M80,80.9671684 C81.9531333,80.9671684 83.7760333,80.6170372 85.46875,79.916758 C87.1614667,79.1727145 88.6263,78.1770263 89.8632833,76.9296597 C91.1002667,75.6822932 92.0876667,74.2051641 92.8255167,72.4982388 C93.5199667,70.7913135 93.8671833,68.9531121 93.8671833,66.9835842 C93.8671833,65.0140563 93.5199667,63.1758549 92.8255167,61.4689296 C92.0876667,59.7620043 91.1002667,58.2848752 89.8632833,57.0375087 C88.6263,55.7901421 87.1614667,54.7944539 85.46875,54.0504104 C83.7760333,53.3501312 81.9531333,53 80,53 C78.0468667,53 76.2239667,53.3501312 74.53125,54.0504104 C72.8385333,54.7944539 71.3737,55.7901421 70.1367167,57.0375087 C68.8997333,58.2848752 67.9123333,59.7620043 67.1744833,61.4689296 C66.4800333,63.1758549 66.1328167,65.0140563 66.1328167,66.9835842 C66.1328167,68.9531121 66.4800333,70.7913135 67.1744833,72.4982388 C67.9123333,74.2051641 68.8997333,75.6822932 70.1367167,76.9296597 C71.3737,78.1770263 72.8385333,79.1727145 74.53125,79.916758 C76.2239667,80.6170372 78.0468667,80.9671684 80,80.9671684 Z M80,58.580301 C82.3437583,58.580301 84.3185667,59.3899826 85.9244833,61.0093709 C87.5303917,62.6287676 88.3333333,64.6201524 88.3333333,66.9835842 C88.3333333,69.347016 87.5303917,71.3384008 85.9244833,72.9577975 C84.3185667,74.5771858 82.3437583,75.3868673 80,75.3868673 C77.6562417,75.3868673 75.6814333,74.5771858 74.0755167,72.9577975 C72.4696083,71.3384008 71.6666667,69.347016 71.6666667,66.9835842 C71.6666667,64.6201524 72.4696083,62.6287676 74.0755167,61.0093709 C75.6814333,59.3899826 77.6562417,58.580301 80,58.580301 Z" id="Page-1"></path>
            </g>
        </g>
    </g>
</svg>