<svg width="14" height="15" viewBox="0 0 14 15" xmlns="http://www.w3.org/2000/svg"><title>Page 1</title><path d="M12.923 15H1.077c-.292 0-.544-.102-.757-.307a.975.975 0 0 1-.32-.727V2.586c0-.29.107-.536.32-.735.213-.2.465-.3.757-.3h1.077v.518c0 .431.157.797.471 1.1a1.59 1.59 0 0 0 1.144.452c.449 0 .83-.151 1.144-.453.315-.302.472-.668.472-1.099v-.517h3.23v.517c0 .431.157.797.472 1.1a1.59 1.59 0 0 0 1.144.452c.448 0 .83-.151 1.144-.453.314-.302.471-.668.471-1.099v-.517h1.077c.292 0 .544.1.757.299.213.2.32.444.32.735v11.38c0 .28-.107.522-.32.727a1.056 1.056 0 0 1-.757.307zm0-9.828H1.077v8.794h11.846V5.172zM3.77 7.76H2.154V6.207h1.615v1.552zm0 2.586H2.154V8.793h1.615v1.552zm0 2.586H2.154V11.38h1.615v1.552zM6.463 7.76H4.846V6.207h1.616v1.552zm0 2.586H4.846V8.793h1.616v1.552zm0 2.586H4.846V11.38h1.616v1.552zM9.155 7.76H7.538V6.207h1.616v1.552zm0 2.586H7.538V8.793h1.616v1.552zm0 2.586H7.538V11.38h1.616v1.552zm2.692-5.172h-1.615V6.207h1.615v1.552zm0 2.586h-1.615V8.793h1.615v1.552zm0 2.586h-1.615V11.38h1.615v1.552zm-1.632-9.828c-.292 0-.541-.1-.749-.299a.962.962 0 0 1-.311-.719V1.018c0-.28.104-.52.311-.719.208-.2.457-.299.749-.299s.541.1.749.299c.207.2.311.44.311.72v1.066c0 .28-.104.52-.311.72a1.044 1.044 0 0 1-.75.298zm-6.462 0c-.291 0-.54-.1-.748-.299a.962.962 0 0 1-.312-.719V1.018c0-.28.104-.52.312-.719C3.21.099 3.46 0 3.752 0s.542.1.75.299c.207.2.31.44.31.72v1.066c0 .28-.103.52-.31.72a1.046 1.046 0 0 1-.75.298z" fill="#888" fill-rule="evenodd"/></svg>