<?xml version="1.0" encoding="UTF-8"?>
<svg width="16px" height="16px" viewBox="0 0 16 16" version="1.1" xmlns="http://www.w3.org/2000/svg" xmlns:xlink="http://www.w3.org/1999/xlink">
    <!-- Generator: Sketch 50.2 (55047) - http://www.bohemiancoding.com/sketch -->
    <title>Fill 1</title>
    <desc>Created with Sketch.</desc>
    <defs></defs>
    <g id="Design" stroke="none" stroke-width="1" fill="none" fill-rule="evenodd">
        <g id="02.1-Them-Moi-Du-An__Thong-Tin-Cong-Trinh" transform="translate(-166.000000, -407.000000)" fill="#BEBEBE">
            <path d="M174.000001,407 C172.900854,407 171.864175,407.209453 170.889929,407.628369 C169.915685,408.047284 169.066357,408.619377 168.34192,409.344665 C167.617483,410.069952 167.04606,410.91715 166.627635,411.886283 C166.209209,412.855417 166,413.890186 166,414.99062 C166,416.10356 166.209209,417.144583 166.627635,418.113717 C167.04606,419.08285 167.617483,419.930048 168.34192,420.655334 C169.066357,421.380621 169.915685,421.952714 170.889929,422.371629 C171.864175,422.790545 172.900854,423 174.000001,423 C175.099146,423 176.135825,422.790545 177.110069,422.371629 C178.084315,421.952714 178.933643,421.380621 179.658078,420.655334 C180.382516,419.930048 180.95394,419.08285 181.372365,418.113717 C181.79079,417.144583 182,416.10356 182,414.99062 C182,413.890186 181.79079,412.855417 181.372365,411.886283 C180.95394,410.91715 180.382516,410.069952 179.658078,409.344665 C178.933643,408.619377 178.084315,408.047284 177.110069,407.628369 C176.135825,407.209453 175.099146,407 174.000001,407 Z M177.728337,417.485345 L176.473069,418.742085 L174.000001,416.247362 L171.526933,418.742085 L170.271663,417.485345 L172.744731,414.99062 L170.271663,412.514652 L171.526933,411.257912 L174.000001,413.73388 L176.473069,411.257912 L177.728337,412.514652 L175.255269,414.99062 L177.728337,417.485345 Z" id="Fill-1"></path>
        </g>
    </g>
</svg>