<?xml version="1.0" encoding="UTF-8" standalone="no"?>
<svg width="36px" height="31px" viewBox="0 0 36 31" version="1.1" xmlns="http://www.w3.org/2000/svg" xmlns:xlink="http://www.w3.org/1999/xlink">
    <!-- Generator: Sketch 47.1 (45422) - http://www.bohemiancoding.com/sketch -->
    <title>Combined Shape</title>
    <desc>Created with Sketch.</desc>
    <defs></defs>
    <g id="Page-1" stroke="none" stroke-width="1" fill="none" fill-rule="evenodd">
        <g id="02.-Popup---Chua-Add-Hinh" transform="translate(-319.000000, -529.000000)" fill-rule="nonzero" fill="#9B9B9B">
            <path d="M337.145787,560 C336.486991,560 335.947976,559.465906 335.927965,558.832953 L335.927965,543.284897 L331.575895,547.4192 C331.09677,547.874122 330.338203,547.854364 329.879019,547.379614 C329.419905,546.904865 329.439845,546.153224 329.918969,545.698232 L336.327259,539.625414 C336.766433,539.19018 337.48512,539.170422 337.944304,539.585828 L344.851658,545.658646 C345.350793,546.09381 345.390673,546.845521 344.951499,547.340029 C344.711937,547.597231 344.392544,547.735677 344.053141,547.735677 C343.773698,547.735677 343.474246,547.636747 343.254623,547.438958 L338.343598,543.106866 L338.343598,558.813126 C338.343598,559.465906 337.804583,560 337.145787,560 Z M350.561271,542.21671 C352.916943,543.383757 355.951421,546.054225 354.71373,550.149011 C353.715601,553.452502 350.421621,554.283314 348.584953,554.283314 C348.505123,554.283314 348.425222,554.283314 348.345391,554.283314 L343.93343,554.283314 C343.274634,554.283314 342.735619,553.749221 342.735619,553.09644 C342.735619,552.443659 343.274634,551.909565 343.93343,551.909565 L348.365331,551.909565 C348.385271,551.909565 348.405282,551.909565 348.425222,551.909565 C348.545003,551.909565 351.639301,552.008495 352.397938,549.476473 C353.515849,545.797162 349.024057,544.135537 348.824445,544.076194 C348.26542,543.878404 347.926087,543.284967 348.065808,542.69153 C348.145639,542.355226 349.802634,534.422924 341.118503,531.851386 C338.662991,531.119504 336.546881,531.277777 334.810055,532.306378 C331.436244,534.304307 330.438044,538.893532 330.438044,538.933117 C330.378154,539.229836 330.198412,539.506797 329.918969,539.684828 C329.639527,539.862859 329.320064,539.922203 329.000671,539.843101 C328.980661,539.843101 326.205755,539.249664 324.049695,540.574984 C322.811933,541.36628 321.973466,542.6916 321.594182,544.531255 C321.174948,546.588458 321.494341,548.289668 322.552431,549.59523 C323.850083,551.157925 325.986203,551.870049 327.443517,551.870049 L330.757437,551.870049 C331.416233,551.870049 331.955248,552.404143 331.955248,553.056924 C331.955248,553.709705 331.416233,554.243798 330.757437,554.243798 L327.423506,554.243798 C325.347277,554.243798 322.45259,553.274541 320.675813,551.098581 C319.617723,549.812777 318.499813,547.537957 319.23844,544.056436 C319.777455,541.563999 320.955326,539.724344 322.771983,538.577055 C324.768382,537.311009 327.044223,537.251665 328.381755,537.350595 C328.940781,535.590041 330.418034,532.128347 333.572293,530.249106 C335.908025,528.864372 338.682931,528.626997 341.79724,529.556739 C347.446962,531.238121 349.503181,534.877916 350.221868,537.627486 C350.721003,539.486899 350.661112,541.188109 350.561271,542.21671 Z" id="Combined-Shape"></path>
        </g>
    </g>
</svg>