<?xml version="1.0" standalone="no"?>
<!DOCTYPE svg PUBLIC "-//W3C//DTD SVG 1.1//EN" "http://www.w3.org/Graphics/SVG/1.1/DTD/svg11.dtd" >
<svg xmlns="http://www.w3.org/2000/svg">
<metadata>Generated by IcoMoon</metadata>
<defs>
<font id="icomoon" horiz-adv-x="1024">
<font-face units-per-em="1024" ascent="960" descent="-64" />
<missing-glyph horiz-adv-x="1024" />
<glyph unicode="&#x20;" horiz-adv-x="512" d="" />
<glyph unicode="&#xe900;" glyph-name="arrow" d="M9.6 684.667c-6.4 6.667-9.6 16.667-9.6 30 0 15.556 5.333 28.333 16 38.333s23.467 15 38.4 15h915.2c14.933 0 27.733-5 38.4-15s16-22.778 16-38.333c0-11.111-3.2-20-9.6-26.667l-6.4-10-435.2-520c-19.2-20-39.467-30-60.8-30s-41.6 10-60.8 30l-435.2 520-6.4 6.667z" />
<glyph unicode="&#xe901;" glyph-name="calendar" d="M916.349-64h-808.697c-19.911 0-37.142 6.988-51.692 20.966s-21.826 30.529-21.826 49.655v776.828c0 19.862 7.275 36.598 21.826 50.207s31.781 20.414 51.692 20.414h73.518v-35.31c0-29.425 10.721-54.437 32.164-75.034s47.48-30.897 78.113-30.897c30.633 0 56.67 10.299 78.113 30.897s32.164 45.609 32.164 75.034v35.31h220.554v-35.31c0-29.425 10.721-54.437 32.164-75.034s47.48-30.897 78.113-30.897c30.633 0 56.67 10.299 78.113 30.897s32.164 45.609 32.164 75.034v35.31h73.518c19.911 0 37.142-6.805 51.692-20.414s21.826-30.345 21.826-50.207v-776.828c0-19.127-7.275-35.678-21.826-49.655s-31.781-20.966-51.692-20.966zM916.349 606.897h-808.697v-600.276h808.697v600.276zM291.446 430.345h-110.277v105.931h110.277v-105.931zM291.446 253.793h-110.277v105.931h110.277v-105.931zM291.446 77.241h-110.277v105.931h110.277v-105.931zM475.241 430.345h-110.277v105.931h110.277v-105.931zM475.241 253.793h-110.277v105.931h110.277v-105.931zM475.241 77.241h-110.277v105.931h110.277v-105.931zM659.036 430.345h-110.277v105.931h110.277v-105.931zM659.036 253.793h-110.277v105.931h110.277v-105.931zM659.036 77.241h-110.277v105.931h110.277v-105.931zM842.831 430.345h-110.277v105.931h110.277v-105.931zM842.831 253.793h-110.277v105.931h110.277v-105.931zM842.831 77.241h-110.277v105.931h110.277v-105.931zM731.405 748.138c-19.911 0-36.95 6.805-51.118 20.414s-21.251 29.977-21.251 49.104v72.827c0 19.127 7.084 35.494 21.251 49.104s31.207 20.414 51.118 20.414c19.911 0 36.95-6.805 51.118-20.414s21.251-29.977 21.251-49.104v-72.827c0-19.127-7.084-35.494-21.251-49.104s-31.207-20.414-51.118-20.414zM290.298 748.138c-19.911 0-36.95 6.805-51.118 20.414s-21.251 29.977-21.251 49.104v72.827c0 19.127 7.084 35.494 21.251 49.104s31.207 20.414 51.118 20.414c19.911 0 36.95-6.805 51.118-20.414s21.251-29.977 21.251-49.104v-72.827c0-19.127-7.084-35.494-21.251-49.104s-31.207-20.414-51.118-20.414z" />
<glyph unicode="&#xe902;" glyph-name="cancel" d="M170.667 49.778c0-62.578 51.2-113.778 113.778-113.778h455.111c62.578 0 113.778 51.2 113.778 113.778v682.667h-682.667v-682.667zM910.222 903.111h-199.111l-56.889 56.889h-284.444l-56.889-56.889h-199.111v-113.778h796.444v113.778z" />
<glyph unicode="&#xe903;" glyph-name="cancel2" d="M874.039 810.039c-200.767 200.767-523.31 200.767-724.077 0s-200.767-523.31 0-724.077c200.767-200.767 523.31-200.767 724.077 0s200.767 523.31 0 724.077zM693.019 234.068c-9.874-9.874-23.039-9.874-32.913 0l-139.879 139.879c-4.937 4.937-11.519 4.937-16.456 0l-139.879-139.879c-9.874-9.874-23.039-9.874-32.913 0l-32.913 32.913c-9.874 9.874-9.874 23.039 0 32.913l139.879 139.879c4.937 4.937 4.937 11.519 0 16.456l-139.879 139.879c-9.874 9.874-9.874 23.039 0 32.913l32.913 32.913c9.874 9.874 23.039 9.874 32.913 0l139.879-139.879c4.937-4.937 11.519-4.937 16.456 0l139.879 139.879c9.874 9.874 23.039 9.874 32.913 0l32.913-32.913c9.874-9.874 9.874-23.039 0-32.913l-139.879-139.879c-4.937-4.937-4.937-11.519 0-16.456l139.879-139.879c9.874-9.874 9.874-23.039 0-32.913l-32.913-32.913z" />
<glyph unicode="&#xe904;" glyph-name="cancel3" d="M587.489 447.991l335.577 335.577c20.849 20.831 20.849 54.631 0 75.462-20.849 20.849-54.613 20.849-75.462 0l-335.577-335.577-335.595 335.577c-20.849 20.849-54.613 20.849-75.462 0-20.849-20.831-20.849-54.631 0-75.462l335.595-335.577-335.595-335.577c-20.849-20.831-20.849-54.631 0-75.462 10.425-10.407 24.087-15.619 37.731-15.619s27.307 5.212 37.731 15.637l335.595 335.577 335.577-335.577c10.425-10.425 24.087-15.637 37.731-15.637s27.307 5.212 37.731 15.637c20.849 20.831 20.849 54.631 0 75.462l-335.577 335.559z" />
<glyph unicode="&#xe905;" glyph-name="check" d="M512 960c-141.334 0-261.999-50-362-150s-150-220.666-150-362c0-141.334 49.999-261.999 150-362s220.666-150 362-150c141.334 0 261.999 50 362 150s150 220.666 150 362c0 141.334-49.999 261.999-150 362s-220.666 150-362 150zM513 0c-123.334 0-229 43.666-317 131s-132 192.999-132 317c0 124.001 44 229.666 132 317s193.666 131 317 131c123.334 0 228.666-43.666 316-131s131-192.999 131-317c0-124.001-43.666-229.666-131-317s-192.666-131-316-131zM737 652c-10 6.667-21 8.667-33 6s-22-9.333-30-20l-216-330-102 96c-9.333 8-20.333 12-33 12s-23-4.667-31-14c-8-9.333-11.667-20.333-11-33s5-23 13-31l144-132c0 0 0.333-0.333 1-1s1.333-1.333 2-2c0.667-0.667 1-1 1-1 1.333 0 2.667-0.333 4-1s2-1 2-1c4-1.333 6.667-2.667 8-4 2.667 0 5.333 0 8 0 4-1.333 7.333-1.333 10 0 1.333 0 2.667 0 4 0 5.333 1.333 10 3.333 14 6 0 0 0.667 0.667 2 2 4 2.667 6.333 4.333 7 5s1.333 1.667 2 3c0.667 1.333 1 2 1 2l246 376c6.667 10.667 8.667 22 6 34s-9 21.333-19 28z" />
<glyph unicode="&#xe906;" glyph-name="ds" d="M117.029 64h65.829v-64c0-17.333 6.514-32.333 19.543-45s28.457-19 46.286-19h658.286c17.829 0 33.257 6.333 46.286 19s19.543 27.667 19.543 45v768c0 17.333-6.514 32.333-19.543 45s-28.457 19-46.286 19h-65.829v64c0 17.333-6.514 32.333-19.543 45s-28.457 19-46.286 19h-658.286c-17.829 0-33.257-6.333-46.286-19s-19.543-27.667-19.543-45v-768c0-17.333 6.514-32.333 19.543-45s28.457-19 46.286-19zM915.2 789.333v-796.444h-633.6v66.37h506.88c17.16 0 32.010 6.568 44.55 19.704s18.81 28.691 18.81 46.667v663.704h63.36zM650.455 846.222c10.017 0 18.246-2.667 24.686-8s9.66-12.148 9.66-20.445c0-8.296-3.22-15.111-9.66-20.444s-14.668-8-24.686-8h-276.909c-10.017 0-18.246 2.667-24.686 8s-9.66 12.148-9.66 20.444c0 8.296 3.22 15.111 9.66 20.445s14.668 8 24.686 8h276.909zM198.674 618.667h453.852c9.413 0 17.145-2.667 23.197-8s9.077-12.148 9.077-20.444c0-8.296-3.026-15.111-9.077-20.445s-13.784-8-23.197-8h-453.852c-9.413 0-17.145 2.667-23.197 8s-9.077 12.148-9.077 20.445c0 8.296 3.026 15.111 9.077 20.444s13.784 8 23.197 8zM198.674 448h453.852c9.413 0 17.145-2.667 23.197-8s9.077-12.148 9.077-20.445c0-8.296-3.026-15.111-9.077-20.444s-13.784-8-23.197-8h-453.852c-9.413 0-17.145 2.667-23.197 8s-9.077 12.148-9.077 20.444c0 8.296 3.026 15.111 9.077 20.445s13.784 8 23.197 8zM198.674 277.333h453.852c9.413 0 17.145-2.667 23.197-8s9.077-12.148 9.077-20.445c0-8.296-3.026-15.111-9.077-20.445s-13.784-8-23.197-8h-453.852c-9.413 0-17.145 2.667-23.197 8s-9.077 12.148-9.077 20.445c0 8.296 3.026 15.111 9.077 20.445s13.784 8 23.197 8z" />
<glyph unicode="&#xe907;" glyph-name="edit" d="M636.748 789.108l208.305-209.323-527.277-529.859-208.187 209.323 527.159 529.859zM1003.116 839.591l-92.896 93.351c-35.901 36.077-94.197 36.077-130.22 0l-88.985-89.421 208.305-209.325 103.796 104.305c27.845 27.983 27.845 73.109 0 101.090zM0.58-34.972c-3.791-17.144 11.613-32.507 28.676-28.337l232.121 56.556-208.187 209.323-52.61-237.542z" />
<glyph unicode="&#xe908;" glyph-name="export" d="M981.24 279.080c0.394 0.471 0.734 0.971 1.104 1.455 0.424 0.556 0.861 1.101 1.252 1.681 0.391 0.575 0.729 1.173 1.085 1.761 0.318 0.527 0.656 1.043 0.95 1.585 0.327 0.598 0.602 1.218 0.896 1.83 0.273 0.567 0.559 1.125 0.804 1.71 0.248 0.593 0.451 1.2 0.669 1.803 0.229 0.625 0.472 1.242 0.669 1.883 0.184 0.601 0.318 1.208 0.475 1.817 0.167 0.654 0.354 1.303 0.488 1.971 0.14 0.694 0.221 1.394 0.324 2.096 0.086 0.588 0.2 1.168 0.259 1.766 0.13 1.29 0.197 2.588 0.2 3.883 0 0.019 0.003 0.035 0.003 0.053 0 0.021-0.003 0.045-0.003 0.066 0 1.293-0.067 2.583-0.197 3.87-0.059 0.598-0.173 1.176-0.259 1.766-0.103 0.7-0.184 1.399-0.324 2.093-0.135 0.673-0.324 1.327-0.491 1.987-0.154 0.601-0.289 1.205-0.47 1.801-0.197 0.644-0.443 1.266-0.675 1.896-0.219 0.598-0.418 1.202-0.664 1.79-0.248 0.588-0.537 1.149-0.81 1.721-0.291 0.609-0.564 1.221-0.888 1.817-0.297 0.548-0.637 1.067-0.958 1.596-0.354 0.588-0.691 1.178-1.079 1.75-0.397 0.582-0.837 1.128-1.26 1.689-0.367 0.484-0.707 0.979-1.098 1.447-0.807 0.971-1.662 1.899-2.558 2.79-0.043 0.043-0.078 0.090-0.121 0.133l-101.198 99.743c-15.806 15.578-41.438 15.581-57.247 0.003-15.809-15.581-15.809-40.84 0-56.421l32.098-31.638-123.568-0.005v209.069c0.008 0.354 0.054 0.7 0.054 1.053 0 9.591-3.473 18.36-9.194 25.241-0.057 0.069-0.113 0.141-0.173 0.21-0.745 0.883-1.53 1.729-2.351 2.548-0.116 0.117-0.235 0.237-0.354 0.354-0.356 0.348-0.688 0.723-1.061 1.059l-295.628 291.364c-0.013 0.011-0.027 0.024-0.040 0.037-0.828 0.814-1.692 1.577-2.577 2.309-0.281 0.231-0.572 0.449-0.858 0.673-0.648 0.505-1.303 0.995-1.978 1.458-0.337 0.234-0.677 0.463-1.023 0.686-0.71 0.457-1.43 0.886-2.164 1.295-0.302 0.168-0.594 0.351-0.901 0.513-0.98 0.516-1.978 0.989-2.993 1.42-0.416 0.178-0.839 0.33-1.26 0.495-0.675 0.263-1.352 0.511-2.040 0.737-0.472 0.154-0.945 0.303-1.422 0.442-0.78 0.223-1.568 0.42-2.361 0.598-0.354 0.077-0.699 0.176-1.058 0.247-1.133 0.223-2.278 0.388-3.427 0.513-0.351 0.040-0.707 0.061-1.061 0.093-0.953 0.082-1.905 0.128-2.861 0.144-0.205 0.005-0.399 0.032-0.605 0.032h-350.83c-22.356 0-40.48-17.863-40.48-39.896v-797.922c0-22.033 18.124-39.896 40.48-39.896h647.687c22.356 0 40.48 17.863 40.48 39.896v215.436l123.562-0.003-32.096-31.632c-15.809-15.581-15.809-40.84 0-56.421 7.904-7.79 18.265-11.687 28.622-11.687s20.721 3.894 28.622 11.687l101.198 99.738c0.022 0.021 0.038 0.043 0.057 0.061 0.926 0.915 1.8 1.87 2.626 2.862zM431.791 750.644l158.648-156.358h-158.648v156.358zM647.687 88.935h-566.726v718.13h269.869v-252.675c0-22.033 18.124-39.896 40.48-39.896h256.376v-170.226l-175.418 0.003c-22.356 0-40.48-17.863-40.48-39.896s18.124-39.896 40.48-39.896l175.418-0.003v-175.54z" />
<glyph unicode="&#xe909;" glyph-name="Fill-5" d="M491.596 716.851l-352.787-271.933c-6.828-5.339-10.809-13.027-10.809-21.136v-393.136c0-15.396 13.978-27.862 31.213-27.862h705.534c17.275 0 31.253 12.467 31.253 27.862v393.136c0 8.109-3.952 15.797-10.878 21.136l-352.741 271.933c-11.683 9.013-29.073 9.013-40.785 0zM480.77 126.093c0-15.396-13.978-27.904-31.213-27.904h-109.234c-17.275 0-31.253 12.508-31.253 27.904v97.678c0 15.396 13.978 27.883 31.253 27.883h109.234c17.234 0 31.213-12.487 31.213-27.883v-97.678zM480.77 335.318c0-15.396-13.978-27.883-31.213-27.883h-109.234c-17.275 0-31.253 12.487-31.253 27.883v97.678c0 15.416 13.978 27.898 31.253 27.898h109.234c17.234 0 31.213-12.482 31.213-27.898v-97.678zM543.213 432.995c0 15.416 13.932 27.898 31.236 27.898h109.228c17.211 0 31.19-12.482 31.19-27.898v-97.678c0-15.396-13.978-27.883-31.19-27.883h-109.228c-17.303 0-31.236 12.487-31.236 27.883v97.678zM543.213 223.791c0 15.396 13.932 27.878 31.236 27.878h109.228c17.211 0 31.19-12.482 31.19-27.878v-97.698c0-15.396-13.978-27.883-31.19-27.883h-109.228c-17.303 0-31.236 12.487-31.236 27.883v97.698zM76.898 437.444c-19.409-15.858-48.83-13.749-65.648 4.666-16.755 18.464-14.542 46.233 4.958 62.075l465.457 378.388c17.424 14.193 43.289 14.193 60.69 0l465.434-378.388c19.54-15.82 21.69-43.611 4.958-62.054-9.207-10.116-22.228-15.312-35.363-15.312-10.699 0-21.467 3.509-30.245 10.624l-435.12 353.743-435.12-353.743z" />
<glyph unicode="&#xe90a;" glyph-name="Help" d="M511.865 960c-282.666 0-511.865-229.199-511.865-511.865 0-282.72 229.199-512.135 511.865-512.135 282.72 0 512.135 229.415 512.135 512.135 0 282.666-229.415 511.865-512.135 511.865zM618.528 166.445c-26.436-10.347-47.4-18.202-63.055-23.673-15.656-5.526-33.857-8.288-54.605-8.288-31.961 0-56.88 7.855-74.485 23.51-17.768 15.439-26.436 35.32-26.436 59.263 0 9.317 0.65 18.797 1.896 28.548 1.3 9.751 3.413 20.531 6.338 32.828l33.044 116.577c2.925 11.214 5.471 21.777 7.367 31.528 1.95 10.184 2.979 19.231 2.979 27.519 0 14.789-3.142 25.19-9.317 31.094-6.121 5.905-17.768 8.667-35.103 8.667-8.451 0-17.335-1.246-26.273-3.792-8.884-2.763-16.468-5.309-22.806-7.638l8.667 35.753c21.56 8.884 42.308 16.306 61.972 22.644 19.718 6.392 38.299 9.534 55.905 9.534 31.69 0 56.067-7.801 73.185-23.077 17.118-15.222 25.84-35.103 25.84-59.643 0-5.092-0.65-13.976-1.733-26.652-1.246-12.947-3.359-24.54-6.555-35.157l-32.774-116.143c-2.763-9.317-5.092-20.098-7.421-31.961-2.113-11.864-3.142-20.964-3.142-27.086 0-15.439 3.575-26.056 10.347-31.528 6.988-5.742 18.852-8.451 35.97-8.451 8.017 0 16.956 1.463 27.086 4.225 9.968 2.709 17.335 5.255 21.994 7.367l-8.884-35.97zM612.84 637.897c-15.439-14.139-33.857-21.343-55.471-21.343-21.344 0-39.978 7.205-55.417 21.343-15.222 14.193-23.077 31.528-23.077 51.842 0 20.152 7.855 37.487 23.077 51.896 15.439 14.139 34.074 21.344 55.417 21.344 21.614 0 40.033-7.205 55.471-21.344 15.222-14.41 22.86-31.744 22.86-51.896 0-20.314-7.638-37.649-22.86-51.842z" />
<glyph unicode="&#xe90b;" glyph-name="lock" d="M704 576h-384v85.334c0 94.104 86.133 170.666 192 170.666s192-76.562 192-170.666v-85.334zM549.812 219.044l10.095-129.664c0.5-6.45-0.954-12.924-3.985-17.769-3.031-4.843-7.374-7.611-11.922-7.611h-63.998c-4.548 0-8.89 2.769-11.922 7.611-3.031 4.845-4.485 11.319-3.984 17.769l10.093 129.664c-16.39 17.031-26.188 43.973-26.188 73.528 0 50.423 28.704 91.429 64 91.429s64-41.006 64-91.429c0-29.554-9.798-56.496-26.188-73.528zM935.11 576h-74.667v85.334c0 164.686-156.308 298.666-348.444 298.666s-348.444-133.98-348.444-298.666v-85.334h-74.667c-13.757 0-24.89-9.542-24.89-21.334v-533.332c0-47.064 44.648-85.334 99.556-85.334h696.887c54.908 0 99.556 38.27 99.556 85.334v533.332c0 11.792-11.132 21.334-24.89 21.334v0z" />
<glyph unicode="&#xe90c;" glyph-name="page-1" d="M960 147.364c0-50.909-15.485-91.106-46.455-120.591s-72.121-44.227-123.454-44.227h-556.182c-51.334 0-92.485 14.742-123.455 44.227s-46.455 69.682-46.455 120.591c0 22.485 0.742 44.439 2.227 65.864s4.455 44.545 8.909 69.364c4.455 24.818 10.076 47.833 16.864 69.045s15.909 41.894 27.364 62.046c11.455 20.151 24.606 37.333 39.455 51.545s32.985 25.561 54.409 34.045c21.424 8.485 45.076 12.727 70.955 12.727 3.818 0 12.727-4.561 26.727-13.682s29.803-19.303 47.409-30.545c17.606-11.243 40.515-21.424 68.727-30.546s56.53-13.682 84.955-13.682c28.424 0 56.742 4.561 84.955 13.682s51.121 19.303 68.727 30.546c17.606 11.242 33.409 21.424 47.409 30.545s22.909 13.682 26.727 13.682c25.879 0 49.53-4.242 70.955-12.727s39.561-19.833 54.409-34.045c14.849-14.212 28-31.394 39.454-51.545s20.576-40.833 27.364-62.046c6.788-21.212 12.409-44.227 16.864-69.045s7.424-47.939 8.909-69.364c1.485-21.424 2.227-43.379 2.227-65.864zM756.364 715.636c0-67.455-23.863-125.045-71.591-172.773s-105.318-71.591-172.773-71.591c-67.455 0-125.045 23.863-172.773 71.591s-71.591 105.318-71.591 172.773c0 67.455 23.863 125.045 71.591 172.773s105.318 71.591 172.773 71.591c67.455 0 125.045-23.863 172.773-71.591s71.591-105.318 71.591-172.773z" />
<glyph unicode="&#xe90d;" glyph-name="save" d="M320.815 717.044c-11.443 0-20.738 7.739-20.738 17.242v140.381h423.84v-140.381c0-9.502-9.321-17.242-20.698-17.242h-382.403zM1008.010 660.019c10.233-8.55 15.99-20.14 15.99-32.252v-528.153c0-43.222-42.072-78.281-93.938-78.281h-836.096c-51.898 0-93.965 35.066-93.965 78.281v696.771c0 43.218 42.068 78.281 93.965 78.281h137.861v-140.379c0-40.888 39.912-74.156 88.989-74.156h382.403c49.066 0 88.989 33.269 88.989 74.156v106.323l215.804-180.591zM864.705 200.895v238.231c0 25.206-24.535 45.681-54.86 45.681h-595.722c-30.296 0-54.829-20.472-54.829-45.681v-238.231c0-25.213 24.533-45.692 54.829-45.692h595.722c30.325 0 54.86 20.475 54.86 45.692zM747.378 411.474c18.847 0 34.126-12.706 34.126-28.442s-15.281-28.442-34.124-28.442h-470.758c-18.885 0-34.16 12.706-34.16 28.442s15.275 28.442 34.16 28.442h470.756zM679.115 297.684c18.856 0 34.132-12.706 34.13-28.442 0-15.704-15.277-28.442-34.133-28.442h-334.233c-18.856 0-34.13 12.738-34.13 28.442 0 15.736 15.275 28.442 34.13 28.442h334.235z" />
<glyph unicode="&#xe90e;" glyph-name="search" d="M968.43 27.298l-232.562 253.474c59.796 74.491 92.558 168.216 92.558 265.788 0 227.967-176.986 413.44-394.521 413.44s-394.521-185.473-394.521-413.44c0-227.967 176.986-413.44 394.521-413.44 81.666 0 159.489 25.813 226.026 74.815l234.328-255.398c9.794-10.66 22.968-16.538 37.085-16.538 13.362 0 26.038 5.339 35.661 15.046 20.446 20.618 21.098 54.808 1.424 76.253zM433.906 852.146c160.793 0 291.603-137.082 291.603-305.586s-130.809-305.586-291.603-305.586c-160.793 0-291.603 137.082-291.603 305.586s130.809 305.586 291.603 305.586z" />
<glyph unicode="&#xe90f;" glyph-name="setting" d="M899.804 396.308l115.36-83.692c9.818-9.846 11.454-21.333 4.909-34.462l-105.542-174.769c-6.545-13.128-16.363-17.231-29.454-12.308l-132.541 51.692c-40.908-27.898-70.361-45.128-88.361-51.692l-19.636-135.385c-3.273-13.128-12.272-19.692-26.999-19.692h-208.629c-14.727 0-23.726 6.564-26.999 19.692l-19.636 135.385c-24.545 9.846-53.998 27.077-88.36 51.692l-132.541-51.692c-13.090-6.564-22.908-2.462-29.454 12.308l-105.542 174.769c-8.182 14.769-6.545 26.256 4.909 34.462l110.451 83.692c0 4.923-0.409 13.128-1.227 24.615s-1.227 20.513-1.227 27.077c0 6.564 0.409 15.59 1.227 27.077s1.227 19.692 1.227 24.615l-112.905 83.692c-9.818 9.846-11.454 21.333-4.909 34.462l105.542 174.769c6.545 13.128 16.363 17.231 29.454 12.308l132.541-51.692c40.908 27.898 70.361 45.128 88.361 51.692l19.636 135.385c3.273 13.128 12.272 19.692 26.999 19.692h208.629c14.727 0 23.726-6.564 26.999-19.692l17.181-135.385c24.545-9.846 53.998-27.077 88.361-51.692l130.086 51.692c13.091 6.564 23.726 2.462 31.908-12.308l105.542-174.769c8.182-14.769 6.545-26.256-4.909-34.462l-110.451-83.692c0-4.923 0.409-13.128 1.227-24.615s1.227-20.513 1.227-27.077c0-24.616-0.818-41.846-2.454-51.692zM509.546 268.308c50.726 0 94.087 17.231 130.086 51.692s53.998 77.128 53.998 128c0 50.872-17.999 93.538-53.998 128s-79.361 51.692-130.086 51.692c-50.726 0-93.678-17.231-128.859-51.692s-52.771-77.128-52.771-128c0-50.872 17.59-93.538 52.771-128s78.133-51.692 128.859-51.692z" />
<glyph unicode="&#xe910;" glyph-name="themmoi" d="M512 960c-283.927 0-512-228.073-512-512s228.073-512 512-512c283.927 0 512 228.073 512 512s-228.073 512-512 512zM791.273 424.727c0-13.964-9.309-23.273-23.273-23.273h-197.818c-6.982 0-11.636-4.655-11.636-11.636v-197.818c0-13.964-9.309-23.273-23.273-23.273h-46.546c-13.964 0-23.273 9.309-23.273 23.273v197.818c0 6.982-4.655 11.636-11.636 11.636h-197.818c-13.964 0-23.273 9.309-23.273 23.273v46.546c0 13.964 9.309 23.273 23.273 23.273h197.818c6.982 0 11.636 4.655 11.636 11.636v197.818c0 13.964 9.309 23.273 23.273 23.273h46.546c13.964 0 23.273-9.309 23.273-23.273v-197.818c0-6.982 4.655-11.636 11.636-11.636h197.818c13.964 0 23.273-9.309 23.273-23.273v-46.546z" />
<glyph unicode="&#xe911;" glyph-name="thongke" d="M39.385 911.238h-39.385v-926.476h1024v37.397l-984.615 1.206v887.873zM309.581 872.635c0 10.455-3.77 19.503-11.312 27.143s-16.471 11.46-26.791 11.46h-114.307c-10.319 0-19.25-3.82-26.791-11.46s-11.312-16.688-11.312-27.143v-772.063h190.512v772.063zM547.721 641.016c0 10.455-3.77 19.503-11.312 27.143s-16.471 11.46-26.791 11.46h-114.307c-10.319 0-19.25-3.82-26.791-11.46s-11.312-16.688-11.312-27.143v-540.444h190.512v540.444zM785.86 409.397c0 10.455-3.77 19.503-11.312 27.143s-16.471 11.46-26.791 11.46h-114.307c-10.319 0-19.25-3.82-26.791-11.46s-11.312-16.688-11.312-27.143v-308.825h190.512v308.825zM985.898 216.381h-114.307c-10.319 0-19.25-3.82-26.791-11.46s-11.312-16.688-11.312-27.143v-77.206h190.512v77.206c0 10.455-3.77 19.503-11.312 27.143s-16.471 11.46-26.791 11.46z" />
<glyph unicode="&#xe912;" glyph-name="thongke2" d="M39.385 928h-39.385v-960h1024v38.75l-984.615 1.25v920zM315.077 888c0 10.833-3.897 20.208-11.692 28.125s-17.025 11.875-27.692 11.875h-118.154c-10.667 0-19.897-3.958-27.692-11.875s-11.692-17.292-11.692-28.125v-800h196.923v800zM551.385 648c0 10.833-3.897 20.208-11.692 28.125s-17.026 11.875-27.692 11.875h-118.154c-10.667 0-19.897-3.958-27.692-11.875s-11.692-17.292-11.692-28.125v-560h196.923v560zM787.692 408c0 10.833-3.897 20.208-11.692 28.125s-17.025 11.875-27.692 11.875h-118.154c-10.667 0-19.897-3.958-27.692-11.875s-11.692-17.292-11.692-28.125v-320h196.923v320zM984.615 208h-118.154c-10.667 0-19.897-3.958-27.692-11.875s-11.692-17.292-11.692-28.125v-80h196.923v80c0 10.833-3.897 20.208-11.692 28.125s-17.025 11.875-27.692 11.875z" />
<glyph unicode="&#xe913;" glyph-name="user" d="M981.333 108.667c0-53.334-16.222-95.444-48.667-126.333s-75.555-46.333-129.333-46.333h-582.667c-53.778 0-96.889 15.444-129.333 46.333s-48.667 73-48.667 126.333c0 23.556 0.778 46.555 2.333 69s4.667 46.667 9.333 72.667c4.667 26 10.555 50.111 17.667 72.333s16.667 43.889 28.667 65c12 21.111 25.778 39.111 41.333 54s34.555 26.778 57 35.667c22.445 8.889 47.222 13.333 74.333 13.333 4 0 13.333-4.778 28-14.333s31.222-20.222 49.667-32c18.445-11.778 42.444-22.444 72-32s59.222-14.333 89-14.333c29.778 0 59.444 4.778 89 14.333s53.556 20.222 72 32c18.445 11.778 35 22.444 49.667 32s24 14.333 28 14.333c27.111 0 51.889-4.444 74.333-13.333s41.444-20.778 57-35.667c15.556-14.889 29.333-32.889 41.333-54s21.556-42.778 28.667-65c7.111-22.222 13-46.333 17.667-72.333s7.778-50.222 9.333-72.667c1.556-22.445 2.333-45.444 2.333-69zM768 704c0-70.667-25-131-75-181s-110.333-75-181-75c-70.667 0-131 25-181 75s-75 110.333-75 181c0 70.667 25 131 75 181s110.333 75 181 75c70.667 0 131-25 181-75s75-110.333 75-181z" />
<glyph unicode="&#xe914;" glyph-name="arrphai" horiz-adv-x="559" d="M22.698-42.647c30.264-31.64 61.903-30.952 94.919 2.063l392.056 441.579c11.005 13.757 16.508 28.888 16.508 45.396 0 19.259-5.502 35.766-16.508 49.523l-392.056 441.579c-13.756 13.757-29.576 20.635-47.459 20.635s-33.703-6.878-47.459-20.635c-30.264-30.264-30.264-61.903 0-94.919l350.787-396.183-350.787-392.056c-30.264-33.015-30.264-65.343 0-96.982z" />
<glyph unicode="&#xe915;" glyph-name="arrtrai" horiz-adv-x="559" d="M503.483-42.647c-30.264-31.64-61.903-30.952-94.919 2.063l-392.056 441.579c-11.005 13.757-16.508 28.888-16.508 45.396 0 19.259 5.502 35.766 16.508 49.523l392.056 441.579c13.756 13.757 29.576 20.635 47.459 20.635s33.703-6.878 47.459-20.635c30.264-30.264 30.264-61.903 0-94.919l-350.787-396.183 350.787-392.056c30.264-33.015 30.264-65.343 0-96.982z" />
<glyph unicode="&#xe916;" glyph-name="doublearrphai" d="M978.169 496.657l-387.149 440.691c-32.949 30.203-65.211 30.203-96.787 0s-30.89-61.779 2.059-94.728l350.082-395.386-350.082-391.268c-13.729-13.729-20.593-29.517-20.593-47.364s6.864-33.635 20.593-47.364c30.203-32.949 61.779-32.949 94.728 0l387.149 440.691c13.729 13.729 20.593 29.517 20.593 47.364s-6.864 33.635-20.593 47.364zM22.652-40.822c30.203-31.576 61.779-30.89 94.728 2.059l391.268 440.691c10.983 13.729 16.474 28.83 16.474 45.305 0 19.22-5.491 35.694-16.474 49.423l-391.268 440.691c-13.729 13.729-29.517 20.593-47.364 20.593s-33.635-6.864-47.364-20.593c-30.203-30.203-30.203-61.779 0-94.728l350.082-395.386-350.082-391.268c-30.203-32.949-30.203-65.211 0-96.787z" />
<glyph unicode="&#xe917;" glyph-name="doublearrtrai" d="M20.593 496.657l387.149 440.691c32.949 30.203 65.211 30.203 96.787 0s30.89-61.779-2.059-94.728l-350.082-395.386 350.082-391.268c13.729-13.729 20.593-29.517 20.593-47.364s-6.864-33.635-20.593-47.364c-30.203-32.949-61.779-32.949-94.728 0l-387.149 440.691c-13.729 13.729-20.593 29.517-20.593 47.364s6.864 33.635 20.593 47.364zM976.11-40.822c-30.203-31.576-61.779-30.89-94.728 2.059l-391.268 440.691c-10.983 13.729-16.474 28.83-16.474 45.305 0 19.22 5.491 35.694 16.474 49.423l391.268 440.691c13.729 13.729 29.517 20.593 47.364 20.593s33.635-6.864 47.364-20.593c30.203-30.203 30.203-61.779 0-94.728l-350.082-395.386 350.082-391.268c30.203-32.949 30.203-65.211 0-96.787z" />
<glyph unicode="&#xe918;" glyph-name="arrdown" horiz-adv-x="1820" d="M910.219-64c-32.626 0-65.248 12.293-90.122 36.827l-782.751 772.42c-49.794 49.136-49.794 128.8 0 177.916 49.773 49.116 130.488 49.116 180.285 0l692.588-683.48 692.594 683.457c49.793 49.116 130.5 49.116 180.268 0 49.818-49.116 49.818-128.781 0-177.916l-782.739-772.42c-24.887-24.538-57.509-36.803-90.123-36.803z" />
<glyph unicode="&#xe919;" glyph-name="arrup" horiz-adv-x="1820" d="M910.219 960c-32.626 0-65.248-12.293-90.122-36.827l-782.751-772.42c-49.794-49.136-49.794-128.8 0-177.916 49.773-49.116 130.488-49.116 180.285 0l692.588 683.48 692.594-683.457c49.793-49.116 130.5-49.116 180.268 0 49.818 49.116 49.818 128.781 0 177.916l-782.739 772.42c-24.887 24.538-57.509 36.803-90.123 36.803z" />
</font>
</defs>
</svg>
